<svg width="45" height="37" viewBox="0 0 45 37" fill="none" xmlns="http://www.w3.org/2000/svg">
<path fill-rule="evenodd" clip-rule="evenodd" d="M39.8881 36.7975H5.01346V31.5879C5.19643 25.5223 10.466 20.9081 13.6498 15.6612V11.047H18.956V14.3588H26.0919V11.047H31.3981V15.6612C34.838 21.2802 39.8881 24.927 39.8881 31.5134V36.7975ZM44.8283 15.6612C44.8283 14.8426 44.9747 14.0239 44.8649 13.1308C40.9493 14.4332 37.1435 14.0611 33.4108 11.9773C33.2645 13.3913 33.484 14.6565 33.9963 15.8473C35.3138 18.8242 44.7186 19.8289 44.8283 15.6612ZM0.109784 15.6612C0.109784 14.8426 -0.0365946 14.0239 0.0731891 13.1308C3.98881 14.4332 7.79464 14.0611 11.5273 11.9773C11.6737 13.3913 11.4541 14.6565 10.9418 15.8473C9.62437 18.8242 0.182973 19.8289 0.109784 15.6612ZM0 11.8656C3.14713 -3.05628 42.2301 -4.84244 44.9747 11.9028C41.1689 12.982 37.2899 12.3494 33.4108 10.5632C33.5206 9.78177 33.3376 9.14918 32.9351 8.62821C30.6297 5.68848 14.1255 5.57685 12.003 8.73985C11.6737 9.2236 11.5273 9.81899 11.5639 10.4888C7.72145 12.8703 3.84243 13.4285 0 11.8656ZM17.2726 17.7451C18.1509 17.7451 18.8462 18.4521 18.8462 19.3452C18.8462 20.2383 18.1509 20.9453 17.2726 20.9453C16.3944 20.9453 15.6991 20.2383 15.6991 19.3452C15.7357 18.4893 16.431 17.7451 17.2726 17.7451ZM27.3727 26.6759C28.251 26.6759 28.9463 27.3829 28.9463 28.276C28.9463 29.1691 28.251 29.8761 27.3727 29.8761C26.4945 29.8761 25.7992 29.1691 25.7992 28.276C25.7992 27.4201 26.4945 26.6759 27.3727 26.6759ZM22.3227 26.6759C23.201 26.6759 23.8963 27.3829 23.8963 28.276C23.8963 29.1691 23.201 29.8761 22.3227 29.8761C21.4444 29.8761 20.7491 29.1691 20.7491 28.276C20.7491 27.4201 21.4444 26.6759 22.3227 26.6759ZM17.2726 26.6759C18.1509 26.6759 18.8462 27.3829 18.8462 28.276C18.8462 29.1691 18.1509 29.8761 17.2726 29.8761C16.3944 29.8761 15.6991 29.1691 15.6991 28.276C15.7357 27.4201 16.431 26.6759 17.2726 26.6759ZM27.3727 22.2105C28.251 22.2105 28.9463 22.9175 28.9463 23.8106C28.9463 24.7037 28.251 25.4107 27.3727 25.4107C26.4945 25.4107 25.7992 24.7037 25.7992 23.8106C25.7992 22.9547 26.4945 22.2105 27.3727 22.2105ZM22.3227 22.2105C23.201 22.2105 23.8963 22.9175 23.8963 23.8106C23.8963 24.7037 23.201 25.4107 22.3227 25.4107C21.4444 25.4107 20.7491 24.7037 20.7491 23.8106C20.7491 22.9547 21.4444 22.2105 22.3227 22.2105ZM17.2726 22.2105C18.1509 22.2105 18.8462 22.9175 18.8462 23.8106C18.8462 24.7037 18.1509 25.4107 17.2726 25.4107C16.3944 25.4107 15.6991 24.7037 15.6991 23.8106C15.7357 22.9547 16.431 22.2105 17.2726 22.2105ZM27.3727 17.7451C28.251 17.7451 28.9463 18.4521 28.9463 19.3452C28.9463 20.2383 28.251 20.9453 27.3727 20.9453C26.4945 20.9453 25.7992 20.2383 25.7992 19.3452C25.7992 18.4893 26.4945 17.7451 27.3727 17.7451ZM22.3227 17.7451C23.201 17.7451 23.8963 18.4521 23.8963 19.3452C23.8963 20.2383 23.201 20.9453 22.3227 20.9453C21.4444 20.9453 20.7491 20.2383 20.7491 19.3452C20.7491 18.4893 21.4444 17.7451 22.3227 17.7451Z" fill="white"/>
</svg>
